<svg id="Layer_1" data-name="Layer 1" xmlns="http://www.w3.org/2000/svg" viewBox="0 0 893.73 114.46"><defs><style>.cls-1{fill:#237f70;}.cls-2{fill:#707070;}</style></defs><title>Logo Buenaventura</title><path class="cls-1" d="M267.43,467a6.71,6.71,0,0,0,0-8.56c-8.57-10.43-24.73-26.11-31.14-31.84a5.39,5.39,0,0,0-3.59-1.38H202.37l33.22,35.23c1.68,2,1.76,3.42,0,5.12l-13.14,13a6.92,6.92,0,0,0-1.59,4.29,7,7,0,0,0,1.59,4.26l13.14,13.34c2,2.57,2,3.94,0,6l-32.73,33.18h29.84c1.72,0,4.65-1.62,7.29-4.19,7.36-7.14,17.85-17.76,27.45-28.64,2.42-2.74,2.41-6.44,0-8.62l-14.21-13.47c-1-1.17-1-1.91,0-3.05Z" transform="translate(-193.27 -425.18)"/><path class="cls-1" d="M193.27,436.2c0-6.46,0-11,7.35-11l18.45,19.71v76.26l-18,18.48c-7.8,0-7.8-2.52-7.8-11.18Z" transform="translate(-193.27 -425.18)"/><path class="cls-2" d="M279.61,477.32h10.85v26.86c0,12.44,4.32,15.25,21.32,15.25S333,516.62,333,504.18V477.32h10.85v26.86c0,18.74-8.8,25.8-32.1,25.8s-32.17-7.06-32.17-25.8Z" transform="translate(-193.27 -425.18)"/><path class="cls-2" d="M442.59,529.22H431.73v-51.9h7.67c14,0,17.75,4.48,30.88,22.61,12.37,17.07,13.27,18.29,18.89,18.29h.07v-40.9H500.1v51.9h-7.66c-12.82,0-16.69-4.1-30.88-22.69-13.28-17.37-13.66-18.21-18.89-18.21h-.08Z" transform="translate(-193.27 -425.18)"/><path class="cls-2" d="M641.79,477.32,621.16,519c-3.19,6.45-7.36,11-16.25,11s-13-4.56-16.24-11L568,477.32H580l19.57,38.85c1.14,2.2,2.59,3.49,5.38,3.49s4.25-1.29,5.39-3.49l19.58-38.85Z" transform="translate(-193.27 -425.18)"/><path class="cls-2" d="M729.84,529.22H719v-51.9h7.67c14,0,17.75,4.48,30.88,22.61,12.37,17.07,13.27,18.29,18.89,18.29h.07v-40.9h10.85v51.9h-7.67c-12.82,0-16.69-4.1-30.87-22.69-13.28-17.37-13.66-18.21-18.89-18.21h-.08Z" transform="translate(-193.27 -425.18)"/><polygon class="cls-2" points="627.76 104.04 627.76 61.93 601.96 61.93 601.96 52.14 664.41 52.14 664.41 61.93 638.61 61.93 638.61 104.04 627.76 104.04"/><path class="cls-2" d="M865.91,477.32h10.85v26.86c0,12.44,4.32,15.25,21.32,15.25s21.24-2.81,21.24-15.25V477.32h10.85v26.86c0,18.74-8.8,25.8-32.1,25.8s-32.17-7.06-32.17-25.8Z" transform="translate(-193.27 -425.18)"/><path class="cls-2" d="M569.45,529.22h11.68l-21.31-41.66c-3.34-6.46-7.21-11-16.1-11s-12.82,4.55-16.08,11l-21.25,41.66H518l6.61-12.82h36.7l-5-9.63H529.53l8.8-17c1.14-2.2,2.58-3.56,5.38-3.56s4.26,1.36,5.39,3.56l7.09,13.83,6.62,12.81h0Z" transform="translate(-193.27 -425.18)"/><path class="cls-2" d="M1075.32,529.22H1087l-21.32-41.66c-3.33-6.46-7.2-11-16.09-11s-12.82,4.55-16.08,11l-21.25,41.66h11.61l6.61-12.82h36.7l-5-9.63h-26.8l8.8-17c1.14-2.2,2.58-3.56,5.38-3.56s4.26,1.36,5.39,3.56l6.06,11.82,7.65,14.82h0Z" transform="translate(-193.27 -425.18)"/><path class="cls-2" d="M366.63,508.13h52.83v-9.71H366.63a29.16,29.16,0,0,0-.39,4.86,30,30,0,0,0,.39,4.86" transform="translate(-193.27 -425.18)"/><path class="cls-2" d="M379.25,487.64h41.13V477.32H379.25c-18.59,0-25,8.88-25,25.95s6.46,25.95,25,25.95h41.13v-10.4H379.25c-10.15,0-13.19-3.78-14-10.67a30.4,30.4,0,0,1,0-9.81c.77-6.87,3.82-10.7,14-10.7" transform="translate(-193.27 -425.18)"/><path class="cls-2" d="M653.9,508.13h52.82v-9.71H653.9a29.16,29.16,0,0,0-.39,4.86,30,30,0,0,0,.39,4.86" transform="translate(-193.27 -425.18)"/><path class="cls-2" d="M666.5,487.64h41.12V477.32H666.5c-18.59,0-25,8.88-25,25.95s6.46,25.95,25,25.95h41.12v-10.4H666.5c-10.17,0-13.2-3.79-14-10.7a30.73,30.73,0,0,1,0-9.71c.76-6.9,3.79-10.77,14-10.77" transform="translate(-193.27 -425.18)"/><path class="cls-2" d="M995.18,507.21c6.75-2,10.62-6.45,10.62-13.73,0-10.4-7.89-16.17-20.64-16.17H940.09v51.9h10.85V486.88H986c6.68,0,8.73,4.41,8.73,7.82s-2,7.81-8.73,7.81H952.3v9.64h32.64c6.9,0,8.5,3.71,8.5,6.6v10.48h11.22V519c0-5.38-2.88-9.63-9.48-11.76" transform="translate(-193.27 -425.18)"/></svg>