<svg id="Layer_1" data-name="Layer 1" xmlns="http://www.w3.org/2000/svg" viewBox="0 0 342.58 289.93"><defs><style>.cls-1{fill:#298275;}.cls-2{fill:#f4ab72;}</style></defs><title>Untitled-2</title><rect class="cls-1" x="333.64" y="266.3" width="8.95" height="8.95"/><polygon class="cls-1" points="324.69 275.24 273.63 275.24 264.68 266.29 226.27 266.29 226.27 257.35 268.38 257.35 277.33 266.29 324.69 266.29 324.69 275.24"/><rect class="cls-1" x="315.74" y="239.45" width="8.95" height="8.95"/><polygon class="cls-1" points="306.8 248.4 273.63 248.4 264.68 239.45 226.27 239.45 226.27 230.5 268.38 230.5 277.33 239.45 306.8 239.45 306.8 248.4"/><path class="cls-1" d="M594.83,543V522.25H637l5.7,20.71ZM637,511.9H594.83c-5.34,0-9.67,4.64-9.67,10.35v57h9.67V553.32h50.72l7.53,27.35,9.28-2.92L646.3,519.34A9.84,9.84,0,0,0,637,511.9" transform="translate(-469.06 -366.93)"/><path class="cls-1" d="M724.58,517.08c-9.55,0-18.14-5.68-22.41-14.83l-3.31-7.08c9.81-3.31,16.92-13.12,16.92-24.69v-8.21l16.43-17.58c8.15.86,14.75,7.16,16.75,15.43H730.29v10.35h19.35v10.35H730.29v10.35h19.27c-.48,14.35-11.46,25.89-25,25.89M596.64,491.19h-6c-11.12,0-20.77,8.06-23.47,19.61L562,532.61h-5.9V522.25c0-5.71-4.34-10.35-9.67-10.35H530.12L640.6,406.33c.32.31.56.67.89,1l14.67,12.57Zm-50.18,41.42H510.75l4.84-10.35h30.88ZM654.71,377.29h1.44a11.08,11.08,0,0,1,7.82,3.29l59.35,59-12.74,13.64-63.05-54a12.58,12.58,0,0,1-4.32-9.61c0-6.79,5.16-12.31,11.5-12.31m77.6,57.06L670.55,373a20.4,20.4,0,0,0-14.41-6h-1.44c-11.67,0-21.17,10.16-21.17,22.66a23.86,23.86,0,0,0,1.53,8.14L515.58,511.9a9.58,9.58,0,0,0-8.66,5.72L499.74,533c-6.47,1.56-11.33,7.74-11.33,15.13v20.71c0,8.56,6.51,15.53,14.51,15.53h4.84V574h-4.84a5,5,0,0,1-4.84-5.18V548.14a5,5,0,0,1,4.84-5.18h66.66l6.93-29.65c1.62-6.92,7.41-11.76,14.08-11.76h48.46a14.62,14.62,0,0,1,13.73,10.51l23.9,74.86,9.15-3.35-23.89-74.85c-3.34-10.48-12.55-17.52-22.89-17.52H609.62l54.11-64.86,42.38,36.28v7.87c0,8.56-6.51,15.53-14.51,15.53h-7.83l9.75,20.87c5.92,12.68,17.82,20.55,31.06,20.55,19.15,0,34.74-16.68,34.74-37.17v-25c0-16.4-11.95-29.84-27-31" transform="translate(-469.06 -366.93)"/><path class="cls-1" d="M662.56,392.82a4.85,4.85,0,1,1-4.84-5.18,5,5,0,0,1,4.84,5.18" transform="translate(-469.06 -366.93)"/><path class="cls-2" d="M662.56,656.87H507.76c-21.34,0-38.7-18.58-38.7-41.42S486.42,574,507.76,574H662.56c21.34,0,38.7,18.58,38.7,41.42s-17.36,41.42-38.7,41.42" transform="translate(-469.06 -366.93)"/><path class="cls-1" d="M662.56,625.8h-2.69a21.27,21.27,0,0,0,0-20.71h2.69c5.34,0,9.67,4.64,9.67,10.35s-4.34,10.36-9.67,10.36M498.08,615.45c0-5.71,4.34-10.35,9.67-10.35h2.69a21.27,21.27,0,0,0,0,20.71h-2.69c-5.34,0-9.67-4.64-9.67-10.36m103.74-10.35h24.73a21.28,21.28,0,0,0,0,20.71H601.82a21.28,21.28,0,0,0,0-20.71m-26.34,10.35c0-5.71,4.34-10.35,9.67-10.35s9.67,4.64,9.67,10.35-4.34,10.36-9.67,10.36-9.67-4.64-9.67-10.36m-31.72-10.35h24.74a21.27,21.27,0,0,0,0,20.71H543.76a21.25,21.25,0,0,0,0-20.71m-26.34,10.35c0-5.71,4.34-10.35,9.67-10.35s9.67,4.64,9.67,10.35-4.34,10.36-9.67,10.36-9.67-4.64-9.67-10.36m135.46,0c0,5.71-4.34,10.36-9.67,10.36s-9.67-4.64-9.67-10.36,4.34-10.35,9.67-10.35,9.67,4.64,9.67,10.35m9.67-20.71H507.76c-10.67,0-19.35,9.29-19.35,20.71s8.68,20.71,19.35,20.71H662.56c10.67,0,19.35-9.29,19.35-20.71s-8.68-20.71-19.35-20.71" transform="translate(-469.06 -366.93)"/></svg>