<svg id="Layer_1" data-name="Layer 1" xmlns="http://www.w3.org/2000/svg" viewBox="0 0 649.48 978.62"><defs><style>.cls-1{fill:#237f70;}</style></defs><title>B</title><path class="cls-1" d="M947,380.54c17.45-20.22,17.72-51.62,0-73.18C873.79,218.2,735.57,84.09,680.78,35.17a46.11,46.11,0,0,0-30.73-11.79H390.81l284,301.23c14.35,17.32,15,29.24,0,43.8L562.45,479.6C554,489,548.9,504.06,548.84,516.26s5.19,25.81,13.61,36.46l112.34,114c17,22,17,33.69,0,51.62L394.92,1002H650.06c14.69,0,39.76-13.88,62.33-35.85C775.33,905.1,865,814.32,947,721.26c20.69-23.45,20.62-55.06,0-73.72L825.54,532.37c-8.9-10-8.69-16.31.13-26.08Z" transform="translate(-313.05 -23.38)"/><path class="cls-1" d="M313,117.58c0-55.19,0-94.14,62.8-94.14L533.61,192V844L379.69,1002C313,1002,313,980.43,313,906.37Z" transform="translate(-313.05 -23.38)"/></svg>