<svg id="Layer_1" data-name="Layer 1" xmlns="http://www.w3.org/2000/svg" viewBox="0 0 215.15 226.4"><defs><style>.cls-1{fill:#247d70;}.cls-2{fill:#eaab49;}</style></defs><title>Sostenibilidad2</title><path class="cls-1" d="M1064.42,530.6a15.21,15.21,0,0,0-20-7.76l-.06,0L1019,534.54a3.88,3.88,0,1,0,3.25,7l25.3-11.67a7.44,7.44,0,0,1,6,13.62l-51.84,22.89a30.05,30.05,0,0,1-25.58-.58l-19-9.43a37.79,37.79,0,0,0-32.16-.73l-.37.17L910.4,523.74,930.09,515a39.18,39.18,0,0,1,29.47-.94l38.16,14a6.88,6.88,0,0,1-4.57,13l-29.51-10a3.88,3.88,0,0,0-2.48,7.35l29.51,10a14.63,14.63,0,0,0,18.53-9.12,14.72,14.72,0,0,0-8.8-18.47l-38.16-14A46.9,46.9,0,0,0,927,507.95l-19.82,8.75A9.8,9.8,0,0,0,895,513.08l-25.46,11.15a3.88,3.88,0,0,0-2.32,3.55v68.31a3.88,3.88,0,0,0,5.63,3.46l49.42-25a9.83,9.83,0,0,0,5.39-11.6l.46-.2a30.05,30.05,0,0,1,25.58.58l19,9.43a37.78,37.78,0,0,0,32.16.73l51.84-22.89A15.21,15.21,0,0,0,1064.42,530.6ZM920.1,566.39a2.05,2.05,0,0,1-1.09,1.14l-.18.09-43.87,22.16v-17l11.47-5.63a3.88,3.88,0,0,0-3.42-7l-8.05,4V530.32l23.14-10.14a2.07,2.07,0,0,1,2.73,1.06l18.24,41.31h0l1,2.26A2.06,2.06,0,0,1,920.1,566.39Z" transform="translate(-867.19 -373.57)"/><path class="cls-2" d="M978.64,435.79a31.11,31.11,0,1,1,31.11-31.11A31.14,31.14,0,0,1,978.64,435.79Z" transform="translate(-867.19 -373.57)"/><polygon class="cls-1" points="194.41 34.57 194.41 41.48 201.32 41.48 201.32 48.39 208.24 48.39 208.24 41.48 215.15 41.48 215.15 34.57 208.24 34.57 208.24 27.65 201.32 27.65 201.32 34.57 194.41 34.57"/><path class="cls-1" d="M982.1,415.05h-6.91a3.46,3.46,0,0,1-3.46-3.46h-6.91A10.38,10.38,0,0,0,975.19,422v3.46h6.91V422a10.37,10.37,0,1,0,0-20.74h-6.91a3.46,3.46,0,1,1,0-6.91h6.91a3.46,3.46,0,0,1,3.46,3.46h6.91A10.38,10.38,0,0,0,982.1,387.4v-3.46h-6.91v3.46a10.37,10.37,0,0,0,0,20.74h6.91a3.46,3.46,0,0,1,0,6.91Z" transform="translate(-867.19 -373.57)"/><polygon class="cls-1" points="177.13 31.11 184.04 31.11 184.04 20.74 194.41 20.74 194.41 13.83 184.04 13.83 184.04 3.46 177.13 3.46 177.13 13.83 166.76 13.83 166.76 20.74 177.13 20.74 177.13 31.11"/><polygon class="cls-1" points="187.5 69.13 187.5 62.22 194.41 62.22 194.41 55.3 187.5 55.3 187.5 48.39 180.58 48.39 180.58 55.3 173.67 55.3 173.67 62.22 180.58 62.22 180.58 69.13 187.5 69.13"/><polygon class="cls-1" points="42.32 41.48 49.23 41.48 49.23 34.57 56.15 34.57 56.15 27.65 49.23 27.65 49.23 20.74 42.32 20.74 42.32 27.65 35.41 27.65 35.41 34.57 42.32 34.57 42.32 41.48"/><polygon class="cls-1" points="18.12 69.13 25.04 69.13 25.04 58.76 35.41 58.76 35.41 51.85 25.04 51.85 25.04 41.48 18.12 41.48 18.12 51.85 7.75 51.85 7.75 58.76 18.12 58.76 18.12 69.13"/><path class="cls-1" d="M956.77,463.39l18.42,12.28V508.5h6.91V492.95l18.42-12.28a31.12,31.12,0,0,0,30-31.05v-3.46H1027a31.12,31.12,0,0,0-31,29.2l-13.92,9.28v-52.3h-6.91v35l-13.92-9.28a31.12,31.12,0,0,0-31-29.2H926.8v3.46A31.12,31.12,0,0,0,956.77,463.39Zm66.52-10a24.25,24.25,0,0,1-20.16,20.16A24.24,24.24,0,0,1,1023.29,453.36Zm-69.13,2.88A24.25,24.25,0,0,1,934,436.08,24.25,24.25,0,0,1,954.16,456.24Z" transform="translate(-867.19 -373.57)"/></svg>