<svg id="Layer_1" data-name="Layer 1" xmlns="http://www.w3.org/2000/svg" viewBox="0 0 217.49 213.98"><defs><style>.cls-1{fill:#eaab49;}.cls-2{fill:#247d70;}</style></defs><title>Sostenibilidad3</title><path class="cls-1" d="M950.7,530.87h49.11v28.06H950.7Z" transform="translate(-866.51 -380.03)"/><path class="cls-1" d="M975.25,467.72a31.57,31.57,0,1,1,31.57-31.57A31.61,31.61,0,0,1,975.25,467.72Z" transform="translate(-866.51 -380.03)"/><path class="cls-2" d="M999.81,380h7v7h-7Z" transform="translate(-866.51 -380.03)"/><path class="cls-2" d="M999.81,394.06h7v7h-7Z" transform="translate(-866.51 -380.03)"/><path class="cls-2" d="M1006.83,387h7v7h-7Z" transform="translate(-866.51 -380.03)"/><path class="cls-2" d="M992.79,387h7v7h-7Z" transform="translate(-866.51 -380.03)"/><path class="cls-2" d="M1029,404.58h7v7h-7Z" transform="translate(-866.51 -380.03)"/><path class="cls-2" d="M1029,418.61h7v7h-7Z" transform="translate(-866.51 -380.03)"/><path class="cls-2" d="M1036.06,411.6h7v7h-7Z" transform="translate(-866.51 -380.03)"/><path class="cls-2" d="M1022,411.6h7v7h-7Z" transform="translate(-866.51 -380.03)"/><path class="cls-2" d="M940.18,380h7v7h-7Z" transform="translate(-866.51 -380.03)"/><path class="cls-2" d="M940.18,394.06h7v7h-7Z" transform="translate(-866.51 -380.03)"/><path class="cls-2" d="M947.19,387h7v7h-7Z" transform="translate(-866.51 -380.03)"/><path class="cls-2" d="M933.16,387h7v7h-7Z" transform="translate(-866.51 -380.03)"/><path class="cls-2" d="M913.67,404.58h7v7h-7Z" transform="translate(-866.51 -380.03)"/><path class="cls-2" d="M913.67,418.61h7v7h-7Z" transform="translate(-866.51 -380.03)"/><path class="cls-2" d="M920.69,411.6h7v7h-7Z" transform="translate(-866.51 -380.03)"/><path class="cls-2" d="M906.66,411.6h7v7h-7Z" transform="translate(-866.51 -380.03)"/><path class="cls-2" d="M1052.43,488.77h12l-20-56.13h-41.06v7h36.11l15,42.09H896l15-42.09h36.11v-7H906.13l-20,56.13h12V587H866.51v7H1084v-7h-31.57Zm-147.33,0h140.32V587h-21V513.33a17.56,17.56,0,0,0-17.54-17.54H943.68a17.56,17.56,0,0,0-17.54,17.54V587h-21ZM971.75,587H933.16V513.33a10.54,10.54,0,0,1,10.52-10.52h28.06Zm45.6,0H978.76V502.8h28.06a10.54,10.54,0,0,1,10.52,10.52Z" transform="translate(-866.51 -380.03)"/><path class="cls-2" d="M985.78,537.88h7v14h-7Z" transform="translate(-866.51 -380.03)"/><path class="cls-2" d="M957.72,537.88h7v14h-7Z" transform="translate(-866.51 -380.03)"/><rect class="cls-2" x="971.78" y="421.77" width="6.94" height="28.7" transform="translate(-327.37 1031.34) rotate(-90)"/><rect class="cls-2" x="971.78" y="421.77" width="6.94" height="28.7" transform="translate(1084 492.21) rotate(180)"/></svg>