<svg id="Layer_1" data-name="Layer 1" xmlns="http://www.w3.org/2000/svg" xmlns:xlink="http://www.w3.org/1999/xlink" viewBox="0 0 346.59 346.59"><defs><style>.cls-1{fill:none;}.cls-2{clip-path:url(#clip-path);}.cls-3{fill:#eaab49;}.cls-3,.cls-4{stroke:#fff;stroke-miterlimit:10;stroke-width:3.86px;}.cls-4{fill:#247d70;}</style><clipPath id="clip-path" transform="translate(-800.28 -322.89)"><rect class="cls-1" x="790.35" y="303.68" width="369.57" height="222.7"/></clipPath></defs><title>ssss</title><g class="cls-2"><path class="cls-3" d="M1089.66,523.83h-22.11V446.44l11.06-11.06,11.06,11.06Z" transform="translate(-800.28 -322.89)"/><path class="cls-3" d="M874.07,440.91l-5.53-5.53L863,440.91l-5.53,49.75,11.06,16.58,11.06-16.58Z" transform="translate(-800.28 -322.89)"/><path class="cls-3" d="M995.68,501.72a11.06,11.06,0,0,1,0-22.11h5.53V452H945.93V479.6h5.53a11.06,11.06,0,0,1,0,22.11h-5.53V518.3h55.28V501.72Z" transform="translate(-800.28 -322.89)"/><path class="cls-4" d="M1120.73,416.42l-20-2.5v-7.64a38.65,38.65,0,0,0,16.58-31.71V369h11.06V358H1117.3v-5.53a27.67,27.67,0,0,0-27.64-27.64h-22.11a27.67,27.67,0,0,0-27.64,27.64V358h-11.06V369h11.06v5.53a38.64,38.64,0,0,0,16.58,31.71v7.64l-20,2.5a27.67,27.67,0,0,0-18.72,10.94l-22.08-2.45v-7.57a38.65,38.65,0,0,0,16.58-31.71V380.1h11.06V369h-11.06v-5.53a27.67,27.67,0,0,0-27.64-27.64H962.52a27.67,27.67,0,0,0-27.64,27.64V369H923.82V380.1h11.06v5.53a38.64,38.64,0,0,0,16.58,31.71v7.57l-22.08,2.45a27.69,27.69,0,0,0-18.72-10.94l-20-2.5v-7.64a38.65,38.65,0,0,0,16.58-31.71V369h11.06V358H907.24v-5.53a27.67,27.67,0,0,0-27.64-27.64H857.49a27.67,27.67,0,0,0-27.64,27.64V358H818.79V369h11.06v5.53a38.64,38.64,0,0,0,16.58,31.71v7.64l-20,2.5a27.68,27.68,0,0,0-24.21,27.42V518.3a16.61,16.61,0,0,0,16.58,16.58,16.39,16.39,0,0,0,5.77-1.1l5.51,133.77H907l5.57-133.75a16.12,16.12,0,0,0,16.77-3.24v4.55l5.75,132.43H1012l5.77-132.67v-4.31a16.14,16.14,0,0,0,16.83,3.21l5.51,133.77h76.94l5.57-133.75a16.38,16.38,0,0,0,5.71,1.08,16.61,16.61,0,0,0,16.58-16.58V443.84A27.68,27.68,0,0,0,1120.73,416.42Zm-23.55,8.2,3.52.44-7.38,17.23-6.9-6.9Zm9.06-72.16V358h-15.59l3.57-21.39A16.55,16.55,0,0,1,1106.24,352.46Zm-32.17-16.58h9.06L1079.44,358h-1.69ZM1051,352.46a16.55,16.55,0,0,1,12-15.87l3.57,21.39H1051Zm0,22.11V369h55.28v5.53a27.64,27.64,0,1,1-55.28,0Zm27.64,38.7a38.46,38.46,0,0,0,11.06-1.63v4.87l-11.06,11.06-11.06-11.06v-4.87A38.46,38.46,0,0,0,1078.6,413.27ZM1060,424.62l10.76,10.76-6.9,6.9-7.38-17.23Zm-58.81-61.1V369H985.62l3.57-21.39A16.55,16.55,0,0,1,1001.21,363.52ZM969,346.93h9.06L974.41,369h-1.69Zm-23.11,16.58a16.55,16.55,0,0,1,12-15.87L961.52,369H945.93Zm0,22.11V380.1h55.28v5.53a27.64,27.64,0,1,1-55.28,0Zm27.64,38.7a38.46,38.46,0,0,0,11.06-1.63v4.2l-11.06,7.37-11.06-7.37v-4.2A38.46,38.46,0,0,0,973.57,424.33Zm-18,11.24,18,12,18-12,28.08,3.12a16.57,16.57,0,0,1,14.75,16.48v35.49a5.54,5.54,0,0,1-5.53,5.53H995.68a5.53,5.53,0,1,1,0-11.06h27.64V452h-11.06v22.11H995.68a16.58,16.58,0,1,0,0,33.17h11.06v22.11H940.4V507.24h11.06a16.58,16.58,0,0,0,0-33.17H934.88V452H923.82v33.17h27.64a5.53,5.53,0,0,1,0,11.06H918.29a5.54,5.54,0,0,1-5.53-5.53V455.17a16.57,16.57,0,0,1,14.75-16.48Zm-63.3-10.31-8.68,17.37-7.25-7.25,10.76-10.76Zm3.89-72.8V358H880.59l3.57-21.39A16.55,16.55,0,0,1,896.18,352.46ZM864,335.88h9.06L869.38,358h-1.69ZM840.9,352.46a16.55,16.55,0,0,1,12-15.87L856.49,358H840.9Zm0,22.11V369h55.28v5.53a27.64,27.64,0,1,1-55.28,0Zm27.64,38.7a38.46,38.46,0,0,0,11.06-1.63v4.87l-11.06,11.06-11.06-11.06v-4.87A38.46,38.46,0,0,0,868.54,413.27ZM850,424.62l10.76,10.76-7.25,7.25-8.68-17.37Zm-31.17,99.21a5.54,5.54,0,0,1-5.53-5.53V443.84a16.61,16.61,0,0,1,14.53-16.45l5.36-.67,17.29,34.58,18.1-18.1,18.1,18.1,17.29-34.58,5.36.67a16.57,16.57,0,0,1,7.7,3.09,27.59,27.59,0,0,0-15.28,24.69V518.3H835.37V457.49H824.32V518.3A5.54,5.54,0,0,1,818.79,523.83Zm16.58,5.53H863V656.5H840.67Zm38.7,127.14V529.36H901.7l-5.3,127.14Zm44.22-132.67a5.54,5.54,0,0,1-5.53-5.53V506.23a16.35,16.35,0,0,0,5.53,1h5.53V518.3A5.54,5.54,0,0,1,918.29,523.83Zm22.35,16.58H968V656.5H945.7ZM979.1,656.5V540.41h27.4l-5,116.09Zm49.75-132.67a5.54,5.54,0,0,1-5.53-5.53V507.24h5.53a16.35,16.35,0,0,0,5.53-1V518.3A5.54,5.54,0,0,1,1028.85,523.83Zm16.58,5.53h27.64V656.5h-22.34Zm38.7,127.14V529.36h27.63l-5.3,127.14Zm49.75-138.2a5.53,5.53,0,1,1-11.06,0V457.49h-11.06V518.3h-66.34V455.17a27.58,27.58,0,0,0-15.28-24.69,16.55,16.55,0,0,1,7.7-3.09l7.24-.91,15.07,35.16,18.45-18.45L1097,461.64l15.07-35.16,7.24.91a16.61,16.61,0,0,1,14.53,16.45Z" transform="translate(-800.28 -322.89)"/><path class="cls-4" d="M1073.08,474.08h11.06v11.06h-11.06Z" transform="translate(-800.28 -322.89)"/></g></svg>